<svg width="24" height="24" viewBox="0 0 24 24" fill="none" xmlns="http://www.w3.org/2000/svg">
<g clip-path="url(#clip0_447_1153)">
<path d="M22.6499 14.39L11.9999 22.13L1.3499 14.39C1.20713 14.285 1.10122 14.1375 1.04733 13.9687C0.99345 13.7999 0.994348 13.6183 1.0499 13.45L2.2699 9.67L4.7099 2.16C4.73357 2.09881 4.77124 2.04401 4.8199 2C4.89914 1.92762 5.00258 1.88749 5.1099 1.88749C5.21722 1.88749 5.32066 1.92762 5.3999 2C5.45128 2.04966 5.48914 2.11162 5.5099 2.18L7.9499 9.67H16.0499L18.4899 2.16C18.5136 2.09881 18.5512 2.04401 18.5999 2C18.6791 1.92762 18.7826 1.88749 18.8899 1.88749C18.9972 1.88749 19.1007 1.92762 19.1799 2C19.2313 2.04966 19.2691 2.11162 19.2899 2.18L21.7299 9.69L22.9999 13.45C23.0504 13.6235 23.0437 13.8086 22.9806 13.978C22.9176 14.1473 22.8016 14.2918 22.6499 14.39V14.39Z" stroke="#F4FFF8" stroke-width="2" stroke-linecap="round" stroke-linejoin="round"/>
</g>
<defs>
<clipPath id="clip0_447_1153">
<rect width="24" height="24" fill="white"/>
</clipPath>
</defs>
</svg>
